# File created by Blade
# Date/Time:  Wed Apr 08 14:55:03 2015
# Frame Rate: 120.000 fps
#------------------------------------------------------
:FULLY-SPECIFIED
:DEGREES
599
root 5.391824 31.384669 -8.736292 18.651717 25.689463 -4.554798
Spine -15.417762 10.876114 -15.622556
Head -8.427259 -35.624626 16.166561
LeftShoulder -30.065138 51.417792 1.567900
LeftArm 39.964505 -8.812503 -70.742785
LeftForeArm 13.906822 -0.000000 113.114532
LeftHand 6.540153 -0.000000 -0.788401
LeftHandThumb1 -26.253704 0.000000 33.147579
RightShoulder -1.437217 -3.276241 -22.492947
RightArm 20.327835 -36.422752 80.565013
RightForeArm 0.038220 -0.000000 110.953499
RightHand 15.568318 -0.000000 -15.542687
RightHandThumb1 -24.326973 -0.000000 -32.862282
LeftUpLeg -43.756773 0.873773 -3.098313
LeftLeg 34.648878 -0.000000 -0.000000
LeftFoot -15.758887 21.518144 -14.522246
LeftToeBase -9.148967 -0.000000 0.000000
RightUpLeg -11.180830 -7.603445 9.376219
RightLeg 46.978037 -0.000000 -0.000000
RightFoot 5.875540 3.236701 28.948631
RightToeBase 2.205659 -0.000000 -0.000000
600
root 5.388607 31.495338 -8.534766 17.961214 27.055323 -5.349283
Spine -15.116184 10.774263 -15.244678
Head -8.612397 -36.509120 17.180920
LeftShoulder -29.791668 51.209782 2.106190
LeftArm 40.451940 -10.230840 -70.318391
LeftForeArm 12.570005 -0.000000 113.338610
LeftHand 6.691643 -0.000000 -0.134729
LeftHandThumb1 -26.253704 0.000000 33.147579
RightShoulder -1.340973 -3.237283 -22.657273
RightArm 20.252139 -36.299440 80.660879
RightForeArm -0.099122 -0.000000 111.011900
RightHand 15.707185 -0.000000 -16.007709
RightHandThumb1 -24.326973 -0.000000 -32.862282
LeftUpLeg -42.819842 0.295689 -1.985281
LeftLeg 33.935492 -0.000000 -0.000000
LeftFoot -15.436691 21.155929 -14.249628
LeftToeBase -9.215871 -0.000000 0.000000
RightUpLeg -12.809026 -8.057925 9.763471
RightLeg 51.185283 -0.000000 -0.000000
RightFoot 13.307120 7.901025 28.751182
RightToeBase 10.285384 -0.000000 -0.000000
601
root 5.365500 31.609759 -8.334209 17.162001 28.453189 -6.437080
Spine -14.873799 10.671686 -14.637678
Head -8.760274 -37.418487 18.236893
LeftShoulder -29.449670 50.934498 2.733711
LeftArm 41.149652 -11.690586 -69.825745
LeftForeArm 11.095144 -0.000000 113.557660
LeftHand 6.717856 -0.000000 0.151103
LeftHandThumb1 -26.253704 0.000000 33.147579
RightShoulder -1.312105 -3.159823 -22.685404
RightArm 20.145905 -36.111895 80.647320
RightForeArm 0.216501 -0.000000 111.162706
RightHand 15.619947 0.000000 -15.791551
RightHandThumb1 -24.326973 -0.000000 -32.862282
LeftUpLeg -41.990121 -0.095053 -0.687014
LeftLeg 33.246758 -0.000000 -0.000000
LeftFoot -15.102271 20.535797 -14.191072
LeftToeBase -9.578684 -0.000000 0.000000
RightUpLeg -14.644668 -8.476686 10.469800
RightLeg 55.682602 -0.000000 -0.000000
RightFoot 19.750241 13.455112 26.674630
RightToeBase 13.187890 -0.000000 -0.000000
602
root 5.341620 31.721647 -8.144827 16.336752 29.812608 -7.582498
Spine -14.668536 10.536280 -13.987192
Head -8.834077 -38.243542 19.270307
LeftShoulder -28.967381 50.570710 3.512097
LeftArm 41.938341 -13.119661 -69.322203
LeftForeArm 9.871275 -0.000000 113.791124
LeftHand 6.805573 -0.000000 0.658843
LeftHandThumb1 -26.253704 0.000000 33.147579
RightShoulder -1.283901 -3.093571 -22.693619
RightArm 20.148442 -35.916287 80.561938
RightForeArm 0.279348 -0.000000 111.193570
RightHand 15.834234 -0.000000 -15.719557
RightHandThumb1 -24.326973 -0.000000 -32.862282
LeftUpLeg -41.226271 -0.418560 0.598896
LeftLeg 32.558651 -0.000000 -0.000000
LeftFoot -14.749915 19.961632 -13.934357
LeftToeBase -9.735500 -0.000000 0.000000
RightUpLeg -16.637107 -8.918825 11.081788
RightLeg 60.520897 -0.000000 -0.000000
RightFoot 26.099709 17.893250 27.425273
RightToeBase 15.074397 -0.000000 -0.000000
603
root 5.306797 31.834032 -7.962247 15.464237 31.240164 -8.827176
Spine -14.468057 10.298102 -13.243967
Head -8.884528 -39.079857 20.296130
LeftShoulder -28.287208 50.043471 4.486162
LeftArm 42.782616 -14.522744 -68.724944
LeftForeArm 9.020118 -0.000000 114.031694
LeftHand 6.823374 0.000000 1.314760
LeftHandThumb1 -26.253704 0.000000 33.147579
RightShoulder -1.281185 -2.960651 -22.645291
RightArm 20.118068 -35.733911 80.483083
RightForeArm 0.208144 -0.000000 111.305558
RightHand 15.635454 -0.000000 -15.820975
RightHandThumb1 -24.326973 -0.000000 -32.862282
LeftUpLeg -40.549617 -0.726092 1.934860
LeftLeg 31.867670 -0.000000 -0.000000
LeftFoot -14.286492 19.348873 -13.504846
LeftToeBase -9.960015 -0.000000 0.000000
RightUpLeg -18.703117 -9.410146 11.703818
RightLeg 65.378620 -0.000000 -0.000000
RightFoot 32.109166 18.304554 31.857651
RightToeBase 18.545665 -0.000000 -0.000000
604
root 5.269001 31.945258 -7.786512 14.519495 32.715793 -10.172697
Spine -14.259641 10.008150 -12.416167
Head -8.938633 -39.907536 21.355462
LeftShoulder -27.549782 49.435832 5.497641
LeftArm 43.838500 -15.905318 -68.049851
LeftForeArm 8.551016 0.000000 114.270177
LeftHand 6.999012 0.000000 1.880988
LeftHandThumb1 -26.253704 0.000000 33.147579
RightShoulder -1.322574 -2.818776 -22.553737
RightArm 20.101970 -35.551012 80.387499
RightForeArm 0.019922 0.000000 111.380659
RightHand 15.474580 -0.000000 -16.118054
RightHandThumb1 -24.326973 -0.000000 -32.862282
LeftUpLeg -39.943189 -1.008068 3.278128
LeftLeg 31.184953 -0.000000 -0.000000
LeftFoot -13.785888 18.775951 -13.079602
LeftToeBase -10.282329 -0.000000 0.000000
RightUpLeg -20.765892 -9.947990 12.339497
RightLeg 70.189746 -0.000000 -0.000000
RightFoot 36.603656 15.578543 36.940252
RightToeBase 22.265209 -0.000000 -0.000000
605
root 5.232981 32.057434 -7.625272 13.657038 34.245871 -11.474020
Spine -14.125422 9.607716 -11.637685
Head -9.009790 -40.710011 22.444029
LeftShoulder -26.622296 48.650104 6.669322
LeftArm 44.949569 -17.251737 -67.322827
LeftForeArm 8.378896 -0.000000 114.529075
LeftHand 7.110475 -0.000000 2.465962
LeftHandThumb1 -26.253704 0.000000 33.147579
RightShoulder -1.390607 -2.715790 -22.462828
RightArm 20.076167 -35.238480 80.403434
RightForeArm -0.125209 -0.000000 111.387749
RightHand 15.414975 -0.000000 -15.969544
RightHandThumb1 -24.326973 -0.000000 -32.862282
LeftUpLeg -39.470499 -1.424911 4.575017
LeftLeg 30.449769 -0.000000 -0.000000
LeftFoot -13.189032 18.283728 -12.614773
LeftToeBase -10.538023 -0.000000 0.000000
RightUpLeg -23.074987 -10.827603 12.845343
RightLeg 75.340305 -0.000000 -0.000000
RightFoot 39.059674 12.711052 38.948013
RightToeBase 19.712132 -0.000000 -0.000000
606
root 5.195872 32.168115 -7.463049 12.583912 35.734323 -12.990886
Spine -13.942907 9.249544 -10.688563
Head -9.086071 -41.489839 23.568236
LeftShoulder -25.686198 47.776360 7.816382
LeftArm 46.266959 -18.568572 -66.567035
LeftForeArm 8.381116 -0.000000 114.756206
LeftHand 7.276182 -0.000000 2.918133
LeftHandThumb1 -26.253704 0.000000 33.147579
RightShoulder -1.477234 -2.603488 -22.321436
RightArm 20.154392 -34.950488 80.349921
RightForeArm -0.444201 0.000000 111.389560
RightHand 15.072698 -0.000000 -16.125195
RightHandThumb1 -24.326973 -0.000000 -32.862282
LeftUpLeg -39.009871 -1.664315 5.919134
LeftLeg 29.804370 -0.000000 -0.000000
LeftFoot -12.596232 17.799980 -11.930560
LeftToeBase -10.697301 -0.000000 0.000000
RightUpLeg -25.290416 -11.534362 13.367549
RightLeg 80.611656 -0.000000 -0.000000
RightFoot 39.563054 10.958342 39.521419
RightToeBase 17.062075 -0.000000 -0.000000
607
root 5.144384 32.283478 -7.320258 11.524180 37.272115 -14.660717
Spine -13.850238 8.791582 -9.639132
Head -9.259627 -42.228109 24.793569
LeftShoulder -24.651273 46.774173 9.049859
LeftArm 47.745110 -19.838743 -65.874208
LeftForeArm 8.561236 -0.000000 114.926024
LeftHand 7.444825 -0.000000 3.275381
LeftHandThumb1 -26.253704 0.000000 33.147579
RightShoulder -1.530966 -2.480914 -22.200257
RightArm 20.094377 -34.606876 80.414386
RightForeArm -0.671330 -0.000000 111.317066
RightHand 15.431686 -0.000000 -16.019771
RightHandThumb1 -24.326973 -0.000000 -32.862282
LeftUpLeg -38.754159 -1.933847 7.359837
LeftLeg 29.107775 -0.000000 -0.000000
LeftFoot -11.915527 17.312283 -11.332021
LeftToeBase -10.979859 -0.000000 0.000000
RightUpLeg -27.667909 -12.071011 13.818009
RightLeg 85.999613 -0.000000 -0.000000
RightFoot 39.137389 10.501822 40.182350
RightToeBase 19.180894 -0.000000 -0.000000
608
root 5.086549 32.400786 -7.186127 10.317100 38.909190 -16.580045
Spine -13.769063 8.230581 -8.372113
Head -9.524824 -42.942222 26.055715
LeftShoulder -23.459192 45.548493 10.377425
LeftArm 49.210642 -21.016780 -65.178427
LeftForeArm 8.673891 -0.000000 115.043500
LeftHand 7.728645 0.000000 3.680712
LeftHandThumb1 -26.253704 0.000000 33.147579
RightShoulder -1.626198 -2.412767 -22.097635
RightArm 20.141539 -34.230353 80.453881
RightForeArm -0.775943 -0.000000 111.204767
RightHand 15.559962 -0.000000 -16.036484
RightHandThumb1 -24.326973 -0.000000 -32.862282
LeftUpLeg -38.630649 -2.242128 8.949644
LeftLeg 28.415647 -0.000000 -0.000000
LeftFoot -11.220916 16.777727 -10.773737
LeftToeBase -11.217755 -0.000000 0.000000
RightUpLeg -30.118410 -12.730836 14.251357
RightLeg 91.349125 -0.000000 -0.000000
RightFoot 38.560332 11.047030 39.756518
RightToeBase 21.613795 -0.000000 -0.000000
